<svg width="21" height="13" viewBox="0 0 21 13" fill="none" xmlns="http://www.w3.org/2000/svg">
<path d="M17.8525 5.1837V2.5918H16.5773V5.1837H14.027V6.47965H16.5773V9.07155H17.8525V6.47965H20.4029V5.1837H17.8525Z" fill="white"/>
<path d="M6.37587 5.1838V7.7757H9.98334C9.4567 9.28419 8.0387 10.3676 6.37587 10.3676C4.26674 10.3676 2.55035 8.62325 2.55035 6.47975C2.55035 4.33625 4.26674 2.5919 6.37587 2.5919C7.29017 2.5919 8.17004 2.92496 8.85354 3.53017L10.5291 1.57588C9.38146 0.559851 7.90736 0 6.37587 0C2.86022 0 0 2.90682 0 6.47975C0 10.0527 2.86022 12.9595 6.37587 12.9595C9.89153 12.9595 12.7517 10.0527 12.7517 6.47975V5.1838H6.37587Z" fill="white"/>
</svg>
