<svg width="16" height="13" viewBox="0 0 16 13" fill="none" xmlns="http://www.w3.org/2000/svg">
<path d="M15.7404 1.539C15.1551 1.8 14.5314 1.973 13.8811 2.057C14.5501 1.651 15.0606 1.013 15.3007 0.244C14.677 0.622 13.9883 0.889 13.2544 1.038C12.6622 0.397 11.8181 0 10.8973 0C9.11076 0 7.67248 1.474 7.67248 3.281C7.67248 3.541 7.69412 3.791 7.74725 4.029C5.06449 3.896 2.69063 2.589 1.09593 0.598C0.817519 1.089 0.654212 1.651 0.654212 2.256C0.654212 3.392 1.22972 4.399 2.08758 4.982C1.56913 4.972 1.06051 4.819 0.629618 4.578C0.629618 4.588 0.629618 4.601 0.629618 4.614C0.629618 6.208 1.74817 7.532 3.21498 7.837C2.95232 7.91 2.66604 7.945 2.36894 7.945C2.16234 7.945 1.95378 7.933 1.75801 7.889C2.17612 9.188 3.36255 10.143 4.77329 10.174C3.67539 11.047 2.28138 11.573 0.772265 11.573C0.507629 11.573 0.253815 11.561 0 11.528C1.42943 12.465 3.12349 13 4.95037 13C10.8884 13 14.1349 8 14.1349 3.666C14.1349 3.521 14.13 3.381 14.1231 3.242C14.7635 2.78 15.3017 2.203 15.7404 1.539Z" fill="white"/>
</svg>
