<svg width="40" height="29" viewBox="0 0 40 29" fill="none" xmlns="http://www.w3.org/2000/svg">
<path d="M8.2857 9.83825C8.87142 13.108 11.0143 15.225 13.7428 15.225C16.4714 15.225 18.5786 13.166 19.2 9.8455C19.3 9.338 19.7786 6.7715 19.8071 6.148C19.8414 5.37259 19.719 4.59826 19.4476 3.87263C19.1761 3.14699 18.7613 2.48539 18.2286 1.9285C17.6413 1.31581 16.9384 0.829595 16.1618 0.498924C15.3852 0.168254 14.5509 -8.27219e-05 13.7087 0.003978C12.8666 0.00803873 12.0339 0.184413 11.2604 0.522558C10.487 0.860703 9.78861 1.35367 9.20713 1.972C8.6821 2.52623 8.27536 3.18444 8.01235 3.90547C7.74934 4.62651 7.63571 5.39486 7.67856 6.1625C7.71427 6.79325 8.22856 9.53375 8.2857 9.83825ZM10.25 2.96525C10.7009 2.49232 11.2409 2.11626 11.8379 1.85943C12.4348 1.6026 13.0766 1.47026 13.725 1.47026C14.3734 1.47026 15.0151 1.6026 15.6121 1.85943C16.2091 2.11626 16.7491 2.49232 17.2 2.96525C17.5978 3.38166 17.9076 3.87622 18.1102 4.41855C18.3129 4.96089 18.4042 5.53955 18.3786 6.119C18.3786 6.51775 18.0143 8.47525 17.7928 9.60625C17.4143 11.6 16.15 13.775 13.7428 13.775C11.3357 13.775 9.99999 11.513 9.6857 9.57C9.47142 8.43175 9.12856 6.47425 9.09999 6.06825C9.07153 5.49861 9.15895 4.92912 9.35681 4.39527C9.55466 3.86141 9.8587 3.37463 10.25 2.96525Z" fill="black"/>
<path d="M22.4714 18.647L13.7429 17.458L5.06429 18.6253C2.92143 19.053 0.585714 20.5683 0.285714 22.9753L0 29H27.6929L27.35 23.2653C27.2 20.8945 25.3857 19.169 22.4714 18.647ZM1.32143 27.55L1.7 23.1638C1.90714 21.4745 3.72857 20.3653 5.27143 20.0535L13.7357 18.9225L22.2429 20.0753C23.3 20.2638 25.7714 20.967 25.9214 23.3523L26.1786 27.55H1.32143Z" fill="black"/>
<path d="M24.2357 12.6585C24.7143 15.3192 26.4857 17.0085 28.7429 17.0085C31 17.0085 32.7357 15.3337 33.25 12.6585C33.3286 12.2525 33.7143 10.2225 33.7357 9.71496C33.7636 9.08624 33.6645 8.45838 33.4446 7.86992C33.2248 7.28147 32.8887 6.74483 32.4571 6.29296C31.9702 5.78888 31.3884 5.38923 30.7463 5.11774C30.1043 4.84624 29.415 4.70843 28.7195 4.71249C28.024 4.71655 27.3363 4.86239 26.6974 5.14136C26.0584 5.42032 25.4812 5.82673 25 6.33646C24.5737 6.78606 24.2432 7.32006 24.0294 7.9051C23.8156 8.49015 23.7229 9.11367 23.7571 9.73671C23.7786 10.237 24.1571 12.267 24.2357 12.6585ZM26.0357 7.32971C26.3864 6.96426 26.8057 6.6738 27.2688 6.47548C27.7319 6.27716 28.2295 6.17498 28.7321 6.17498C29.2348 6.17498 29.7323 6.27716 30.1954 6.47548C30.6585 6.6738 31.0778 6.96426 31.4286 7.32971C31.7266 7.64049 31.9589 8.00981 32.1112 8.415C32.2635 8.82018 32.3326 9.25269 32.3143 9.68596C32.3143 9.97596 32.0357 11.4622 31.85 12.4192C31.7071 13.1442 31.0571 15.6165 28.7429 15.6165C26.8786 15.6165 25.8857 13.9707 25.6429 12.4192C25.4714 11.5275 25.2 9.99046 25.1786 9.67871C25.1518 9.24873 25.2136 8.81781 25.3599 8.41339C25.5063 8.00896 25.734 7.6399 26.0286 7.32971H26.0357Z" fill="black"/>
<path d="M31.4286 29.0001H40L39.9215 23.5481C39.7715 21.5833 38.2786 20.1478 35.8786 19.7128L28.8286 18.8501L28.6572 20.3001L35.6715 21.1556C36.4786 21.3006 38.3643 21.8371 38.5286 23.6496L38.7 27.5501H31.4286V29.0001Z" fill="black"/>
</svg>
