<svg width="36" height="33" viewBox="0 0 36 33" fill="none" xmlns="http://www.w3.org/2000/svg">
<path d="M9.24326 0V27.75C9.24326 28.7446 8.85173 29.6984 8.1548 30.4016C7.45788 31.1049 6.51265 31.5 5.52704 31.5C4.54144 31.5 3.59621 31.1049 2.89928 30.4016C2.20236 29.6984 1.81083 28.7446 1.81083 27.75V16.5C1.81083 16.1022 1.96744 15.7206 2.24621 15.4393C2.52498 15.158 2.90307 15 3.29731 15C3.69155 15 4.06965 15.158 4.34842 15.4393C4.62719 15.7206 4.7838 16.1022 4.7838 16.5V26.25H6.27029V16.5C6.27029 15.7044 5.95706 14.9413 5.39952 14.3787C4.84198 13.8161 4.0858 13.5 3.29731 13.5C2.50883 13.5 1.75265 13.8161 1.1951 14.3787C0.637564 14.9413 0.324341 15.7044 0.324341 16.5L0.324341 27.75C0.324341 29.1424 0.872481 30.4777 1.84818 31.4623C2.82387 32.4469 4.1472 33 5.52704 33H30.7973C32.1772 33 33.5005 32.4469 34.4762 31.4623C35.4519 30.4777 36 29.1424 36 27.75V0H9.24326ZM34.5135 27.75C34.5135 28.7446 34.122 29.6984 33.4251 30.4016C32.7281 31.1049 31.7829 31.5 30.7973 31.5H9.1615C9.65711 31.0117 10.0511 30.4285 10.3204 29.7846C10.5897 29.1407 10.7289 28.4489 10.7297 27.75V1.5H34.5135V27.75Z" fill="#C09737"/>
<path d="M30.0541 6H15.1892V16.5H30.0541V6ZM28.5676 15H16.6757V7.5H28.5676V15Z" fill="#C09737"/>
<path d="M30.0541 19.5H15.1892V21H30.0541V19.5Z" fill="#C09737"/>
<path d="M26.3379 24H15.1892V25.5H26.3379V24Z" fill="#C09737"/>
</svg>

