<svg width="25" height="33" viewBox="0 0 25 33" fill="none" xmlns="http://www.w3.org/2000/svg">
<path d="M18.0486 14.4375L16.8472 13.75L12.0833 21.9106L8.21525 18.0812L7.23608 19.0575L12.3819 24.1519L18.0486 14.4375Z" fill="#101010"/>
<path d="M22.2222 6.875V0L2.38194 2.0625C1.73465 2.19765 1.15043 2.54035 0.719805 3.03751C0.289179 3.53468 0.0361791 4.15856 0 4.8125L0 26.8125C0 28.4535 0.65848 30.0273 1.83058 31.1877C3.00268 32.3481 4.5924 33 6.25 33H18.75C20.4076 33 21.9973 32.3481 23.1694 31.1877C24.3415 30.0273 25 28.4535 25 26.8125V6.875H22.2222ZM2.59722 3.40312L20.8333 1.53313V6.875H3.34028C2.82274 6.875 2.32639 6.67146 1.96044 6.30917C1.59448 5.94687 1.38889 5.45549 1.38889 4.94313C1.38867 4.58996 1.50736 4.24681 1.72619 3.9679C1.94503 3.689 2.25152 3.49027 2.59722 3.40312ZM23.6111 26.8125C23.6111 28.0889 23.099 29.3129 22.1873 30.2155C21.2757 31.118 20.0392 31.625 18.75 31.625H6.25C4.96075 31.625 3.72431 31.118 2.81268 30.2155C1.90104 29.3129 1.38889 28.0889 1.38889 26.8125V7.62438C1.95633 8.03164 2.63941 8.25064 3.34028 8.25H23.6111V26.8125Z" fill="#101010"/>
</svg>
