<svg width="10" height="10" viewBox="0 0 10 10" fill="none" xmlns="http://www.w3.org/2000/svg">
<path d="M9.31739 3.79849C9.20518 3.06628 8.95779 2.42219 8.57269 1.86623C8.15061 1.2364 7.61503 0.775038 6.96342 0.48345C6.31435 0.190565 5.58368 0.0441227 4.77012 0.0454187C3.40441 0.0454187 2.295 0.479562 1.43681 1.34137C0.581169 2.20577 0.15271 3.44858 0.15271 5.06852C0.15271 6.79602 0.625799 8.04402 1.57708 8.80993C2.52453 9.57713 3.61863 9.95944 4.86065 9.95944C6.36409 9.95944 7.53342 9.50456 8.36866 8.59739C8.90296 8.02458 9.20518 7.46084 9.27149 6.90747H6.78234C6.63825 7.18092 6.4712 7.39475 6.27992 7.55027C5.93308 7.83538 5.48167 7.97793 4.92824 7.97793C4.40159 7.97793 3.95528 7.86 3.58293 7.62543C2.9683 7.24961 2.64695 6.59126 2.60615 5.65429H9.399C9.4092 4.84691 9.3837 4.22615 9.31739 3.79849ZM2.66735 4.04083C2.75662 3.43303 2.9734 2.95094 3.31769 2.59455C3.66199 2.23946 4.14911 2.06062 4.77267 2.05932C5.34777 2.05932 5.82851 2.2265 6.21999 2.56215C6.60637 2.9004 6.82442 3.39156 6.86905 4.04083H2.66735Z" fill="white"/>
</svg>
